STARTFONT 2.1
FONT -Sun-OPEN LOOK glyph-----16-160-75-75-P-137-SunOLglyph-1
SIZE 16 75 75
FONTBOUNDINGBOX 55 55 0 -55

STARTPROPERTIES 22
FONTNAME_REGISTRY ""
FAMILY_NAME "OPEN LOOK glyph"
FOUNDRY "Sun"
WEIGHT_NAME ""
SETWIDTH_NAME ""
SLANT ""
ADD_STYLE_NAME ""
PIXEL_SIZE 16
POINT_SIZE 160
RESOLUTION_X 75
RESOLUTION_Y 75
SPACING "P"
AVERAGE_WIDTH 137
CHARSET_REGISTRY "SunOLglyph"
CHARSET_ENCODING "1"
FULL_NAME "OLGlyph"
WEIGHT 10
X_HEIGHT 0
QUAD_WIDTH 28
DEFAULT_CHAR 0
FONT_DESCENT 55
FONT_ASCENT 0
ENDPROPERTIES

CHARS 234

STARTCHAR VerticalScrollbarEle
ENCODING 1
SWIDTH 81 0
DWIDTH 18 0
BBX 18 55 0 -55
BITMAP
7FFF80
8000C0
8000C0
8000C0
8000C0
81C0C0
83E0C0
87F0C0
8FF8C0
9FFCC0
BFFEC0
BFFEC0
8000C0
8000C0
8000C0
8000C0
8000C0
8000C0
FFFFC0
8000C0
8000C0
8000C0
8000C0
8000C0
8000C0
8000C0
8000C0
8000C0
8000C0
8000C0
8000C0
8000C0
8000C0
8000C0
8000C0
FFFFC0
FFFFC0
8000C0
8000C0
8000C0
8000C0
8000C0
9FFEC0
BFFEC0
9FFCC0
8FF8C0
87F0C0
83E0C0
81C0C0
8000C0
8000C0
8000C0
8000C0
FFFFC0
7FFF80
ENDCHAR

STARTCHAR VerticalScrollbarEle
ENCODING 2
SWIDTH 81 0
DWIDTH 19 0
BBX 18 55 0 -55
BITMAP
7FFF80
FFFFC0
FFFFC0
FFFFC0
FFFFC0
FF7FC0
FE3FC0
FC1FC0
F80FC0
F007C0
E003C0
E003C0
FFFFC0
FFFFC0
FFFFC0
FFFFC0
FFFFC0
FFFFC0
FFFFC0
8000C0
8000C0
8000C0
8000C0
8000C0
8000C0
8000C0
8000C0
8000C0
8000C0
8000C0
8000C0
8000C0
8000C0
8000C0
8000C0
FFFFC0
FFFFC0
8000C0
8000C0
8000C0
8000C0
8000C0
9FFEC0
BFFEC0
9FFCC0
8FF8C0
87F0C0
83E0C0
81C0C0
8000C0
8000C0
8000C0
8000C0
FFFFC0
7FFF80
ENDCHAR

STARTCHAR VerticalScrollbarEle
ENCODING 3
SWIDTH 81 0
DWIDTH 19 0
BBX 18 55 0 -55
BITMAP
7FFF80
8000C0
8000C0
8000C0
8000C0
81C0C0
83E0C0
87F0C0
8FF8C0
9FFCC0
BFFEC0
BFFEC0
8000C0
8000C0
8000C0
8000C0
8000C0
8000C0
FFFFC0
FFFFC0
FFFFC0
FFFFC0
FFFFC0
FFFFC0
FFFFC0
FFFFC0
FFFFC0
FFFFC0
FFFFC0
FFFFC0
FFFFC0
FFFFC0
FFFFC0
FFFFC0
FFFFC0
FFFFC0
FFFFC0
8000C0
8000C0
8000C0
8000C0
8000C0
9FFEC0
BFFEC0
9FFCC0
8FF8C0
87F0C0
83E0C0
81C0C0
8000C0
8000C0
8000C0
8000C0
FFFFC0
7FFF80
ENDCHAR

STARTCHAR VerticalScrollbarEle
ENCODING 4
SWIDTH 81 0
DWIDTH 18 0
BBX 18 55 0 -55
BITMAP
7FFF80
8000C0
8000C0
8000C0
8000C0
81C0C0
83E0C0
87F0C0
8FF8C0
9FFCC0
BFFEC0
BFFEC0
8000C0
8000C0
8000C0
8000C0
8000C0
8000C0
FFFFC0
8000C0
8000C0
8000C0
8000C0
8000C0
8000C0
8000C0
8000C0
8000C0
8000C0
8000C0
8000C0
8000C0
8000C0
8000C0
8000C0
FFFFC0
FFFFC0
FFFFC0
FFFFC0
FFFFC0
FFFFC0
FFFFC0
FFFFC0
E003C0
F007C0
F80FC0
FC1FC0
FE3FC0
FF7FC0
FFFFC0
FFFFC0
FFFFC0
FFFFC0
FFFFC0
7FFF80
ENDCHAR

STARTCHAR VerticalScrollbarRed
ENCODING 5
SWIDTH 81 0
DWIDTH 18 0
BBX 18 38 0 -38
BITMAP
7FFF80
8000C0
8000C0
8000C0
8000C0
80C0C0
81E0C0
83F0C0
87F8C0
8FFCC0
9FFEC0
BFFEC0
8000C0
8000C0
8000C0
8000C0
8000C0
8000C0
FFFFC0
8000C0
8000C0
8000C0
8000C0
8000C0
8000C0
BFFEC0
BFFEC0
9FFCC0
8FF8C0
87F0C0
83E0C0
81C0C0
8000C0
8000C0
8000C0
8000C0
FFFFC0
7FFF80
ENDCHAR

STARTCHAR VerticalScrollbarRed
ENCODING 6
SWIDTH 81 0
DWIDTH 18 0
BBX 18 38 0 -38
BITMAP
7FFF80
FFFFC0
FFFFC0
FFFFC0
FFFFC0
FF7FC0
FE3FC0
FC1FC0
F80FC0
F007C0
E003C0
E003C0
FFFFC0
FFFFC0
FFFFC0
FFFFC0
FFFFC0
FFFFC0
FFFFC0
8000C0
8000C0
8000C0
8000C0
8000C0
8000C0
BFFEC0
BFFEC0
9FFCC0
8FF8C0
87F0C0
83E0C0
81C0C0
8000C0
8000C0
8000C0
8000C0
FFFFC0
7FFF80
ENDCHAR

STARTCHAR VerticalScrollbarRed
ENCODING 7
SWIDTH 81 0
DWIDTH 18 0
BBX 18 38 0 -38
BITMAP
7FFF80
8000C0
8000C0
8000C0
8000C0
80C0C0
81E0C0
83F0C0
87F8C0
8FFCC0
9FFEC0
BFFEC0
8000C0
8000C0
8000C0
8000C0
8000C0
8000C0
FFFFC0
FFFFC0
FFFFC0
FFFFC0
FFFFC0
FFFFC0
FFFFC0
E003C0
E003C0
F007C0
F80FC0
FC1FC0
FE3FC0
FF7FC0
FFFFC0
FFFFC0
FFFFC0
FFFFC0
FFFFC0
7FFF80
ENDCHAR

STARTCHAR VerticalScrollbarAnc
ENCODING 8
SWIDTH 81 0
DWIDTH 18 0
BBX 18 8 0 -8
BITMAP
FFFFC0
800040
800040
800040
800040
800040
800040
FFFFC0
ENDCHAR

STARTCHAR VerticalScrollbarAnc
ENCODING 9
SWIDTH 81 0
DWIDTH 18 0
BBX 18 8 0 -8
BITMAP
FFFFC0
FFFFC0
FFFFC0
FFFFC0
FFFFC0
FFFFC0
FFFFC0
FFFFC0
ENDCHAR

STARTCHAR HorizontalScrollbarE
ENCODING 10
SWIDTH 81 0
DWIDTH 55 0
BBX 55 18 0 -18
BITMAP
7FFFFFFFFFFFFC
80002000180006
80302000181006
80702000183806
80F02000183C06
81F02000183E06
83F02000183F06
87F02000183F86
87F02000183F86
87F02000183F86
83F02000183F06
81F02000183E06
80F02000183C06
80702000183806
80302000183006
80002000180006
FFFFFFFFFFFFFE
7FFFFFFFFFFFFC
ENDCHAR

STARTCHAR HorizontalScrollbarE
ENCODING 11
SWIDTH 81 0
DWIDTH 55 0
BBX 55 18 0 -18
BITMAP
7FFFFFFFFFFFFC
FFFFE000180006
FFFFE000181006
FFCFE000183806
FF8FE000183C06
FF0FE000183E06
FE0FE000183F06
FC0FE000183F86
F80FE000183F86
FC0FE000183F86
FE0FE000183F06
FF0FE000183E06
FF8FE000183C06
FFCFE000183806
FFFFE000183006
FFFFE000180006
FFFFFFFFFFFFFE
7FFFFFFFFFFFFC
ENDCHAR

STARTCHAR HorizontalScrollbarE
ENCODING 12
SWIDTH 81 0
DWIDTH 55 0
BBX 55 18 0 -18
BITMAP
7FFFFFFFFFFFFC
80003FFFF80006
80303FFFF81006
80703FFFF83806
80F03FFFF83C06
81F03FFFF83E06
83F03FFFF83F06
87F03FFFF83F86
87F03FFFF83F86
87F03FFFF83F86
83F03FFFF83F06
81F03FFFF83E06
80F03FFFF83C06
80703FFFF83806
80303FFFF83006
80003FFFF80006
FFFFFFFFFFFFFE
7FFFFFFFFFFFFC
ENDCHAR

STARTCHAR HorizontalScrollbarE
ENCODING 13
SWIDTH 81 0
DWIDTH 55 0
BBX 55 18 0 -18
BITMAP
7FFFFFFFFFFFFC
800020001FFFFE
803020001FFFFE
807020001FEFFE
80F020001FE7FE
81F020001FE3FE
83F020001FE1FE
87F020001FE0FE
87F020001FE07E
87F020001FE0FE
83F020001FE1FE
81F020001FE3FE
80F020001FE7FE
807020001FEFFE
803020001FFFFE
800020001FFFFE
FFFFFFFFFFFFFE
7FFFFFFFFFFFFC
ENDCHAR

STARTCHAR HorizontalScrollbarR
ENCODING 14
SWIDTH 81 0
DWIDTH 38 0
BBX 38 18 0 -18
BITMAP
7FFFFFFFF8
800020000C
801020600C
803020700C
807020780C
80F0207C0C
81F0207E0C
83F0207F0C
87F0207F0C
87F0207F0C
83F0207E0C
81F0207C0C
80F020780C
807020700C
803020600C
800020000C
FFFFFFFFFC
7FFFFFFFF8
ENDCHAR

STARTCHAR HorizontalScrollbarR
ENCODING 15
SWIDTH 81 0
DWIDTH 38 0
BBX 38 18 0 -18
BITMAP
7FFFFFFFF8
FFFFE0000C
FFFFE0600C
FFCFE0700C
FF8FE0780C
FF0FE07C0C
FE0FE07E0C
FC0FE07F0C
F80FE07F0C
FC0FE07F0C
FE0FE07E0C
FF0FE07C0C
FF8FE0780C
FFCFE0700C
FFFFE0600C
FFFFE0000C
FFFFFFFFFC
7FFFFFFFF8
ENDCHAR

STARTCHAR HorizontalScrollbarR
ENCODING 16
SWIDTH 81 0
DWIDTH 38 0
BBX 38 18 0 -18
BITMAP
7FFFFFFFF8
80003FFFFC
80103FFFFC
80303F9FFC
80703F8FFC
80F03F87FC
81F03F83FC
83F03F81FC
87F03F80FC
87F03F81FC
83F03F83FC
81F03F87FC
80F03F8FFC
80703F9FFC
80303FFFFC
80003FFFFC
FFFFFFFFFC
7FFFFFFFF8
ENDCHAR

STARTCHAR HorizontalScrollbarA
ENCODING 17
SWIDTH 81 0
DWIDTH 8 0
BBX 8 18 0 -18
BITMAP
FF
81
81
81
81
81
81
81
81
81
81
81
81
81
81
81
81
FF
ENDCHAR

STARTCHAR HorizontalScrollbarA
ENCODING 18
SWIDTH 81 0
DWIDTH 8 0
BBX 8 18 0 -18
BITMAP
FF
FF
FF
FF
FF
FF
FF
FF
FF
FF
FF
FF
FF
FF
FF
FF
FF
FF
ENDCHAR

STARTCHAR pupinout
ENCODING 19
SWIDTH 81 0
DWIDTH 25 0
BBX 25 12 0 -12
BITMAP
00070000
00058380
0005FE80
0005FE80
00058680
0FFD8680
07FD8680
00058680
4005FF80
E007FF80
B0078380
60070000
ENDCHAR

STARTCHAR pupin-in
ENCODING 20
SWIDTH 36 0
DWIDTH 13 0
BBX 13 13 0 -13
BITMAP
01C0
0E70
3810
4818
5808
9808
9818
8C10
CFF0
47E0
71E0
FFC0
C000
ENDCHAR

STARTCHAR defpupinout
ENCODING 21
SWIDTH 81 0
DWIDTH 25 0
BBX 25 15 0 -15
BITMAP
00070000
00058380
0005FE80
0005FE80
00058680
0FFD8680
07FD8680
00058680
7805FE80
C405FF80
BA078380
AA070100
BA060000
C4000000
78000000
ENDCHAR

STARTCHAR C22
ENCODING 22
SWIDTH 81 0
DWIDTH 19 0
BBX 19 18 0 -18
BITMAP
7FFF80
C000C0
800060
800060
8FFC60
880460
840860
840860
821060
833060
812060
81E060
80E060
804060
800060
C000E0
7FFFE0
3FFFC0
ENDCHAR

STARTCHAR abbrmenubuinv
ENCODING 23
SWIDTH 81 0
DWIDTH 19 0
BBX 19 18 0 -18
BITMAP
7FFF80
C000C0
BFFF60
BFFFE0
B807E0
BFFBE0
BBF7E0
BFFFE0
BDEFE0
BFFFE0
BEFFE0
BFFFE0
BFFFE0
BFFFE0
BFFF60
DFFEE0
7FFFE0
3FFFC0
ENDCHAR

STARTCHAR buutonupleft
ENCODING 24
SWIDTH 81 0
DWIDTH 16 0
BBX 16 24 0 -24
BITMAP
007F
0380
0E00
1800
3000
2000
6000
4000
C000
8000
8000
8000
8000
8000
C000
4000
6000
6000
3000
1800
0800
0000
0000
0000
ENDCHAR

STARTCHAR buutonLL
ENCODING 25
SWIDTH 81 0
DWIDTH 16 0
BBX 16 23 0 -23
BITMAP
0000
0000
0000
0000
0000
0000
0000
0000
0000
0000
0000
0000
0000
0000
0000
0000
0000
0000
0000
0000
0E00
0380
00FF
ENDCHAR

STARTCHAR buttonLeftEndcapFill
ENCODING 26
SWIDTH 81 0
DWIDTH 16 0
BBX 16 24 0 -24
BITMAP
0000
00FF
03FF
0FFF
1FFF
1FFF
3FFF
3FFF
7FFF
7FFF
7FFF
7FFF
7FFF
7FFF
7FFF
3FFF
3FFF
3FFF
1FFF
0FFF
07FF
01FF
0000
0000
ENDCHAR

STARTCHAR buutonupLR
ENCODING 27
SWIDTH 81 0
DWIDTH 16 0
BBX 16 23 0 -23
BITMAP
0000
0000
0010
0018
000C
0004
0006
0002
0003
0001
0001
0001
0001
0001
0003
0002
0006
0004
000C
0018
0070
01C0
FE00
ENDCHAR

STARTCHAR buutonUL
ENCODING 28
SWIDTH 81 0
DWIDTH 16 0
BBX 16 23 0 -23
BITMAP
FE00
01C0
0060
0000
0000
0000
0000
0000
0000
0000
0000
0000
0000
0000
0000
0000
0000
0000
0000
0000
0000
0000
0000
ENDCHAR

STARTCHAR buutonRightEndcapFil
ENCODING 29
SWIDTH 81 0
DWIDTH 16 0
BBX 16 24 0 -24
BITMAP
0000
FF00
FFC0
FFF0
FFF8
FFF8
FFFC
FFFC
FFFE
FFFE
FFFE
FFFE
FFFE
FFFE
FFFE
FFFC
FFFC
FFFC
FFF8
FFF0
FFE0
FF80
0000
0000
ENDCHAR

STARTCHAR BuTop-1
ENCODING 30
SWIDTH 81 0
DWIDTH 1 0
BBX 1 25 0 -25
BITMAP
80
00
00
00
00
00
00
00
00
00
00
00
00
00
00
00
00
00
00
00
00
00
00
00
00
ENDCHAR

STARTCHAR BuTop-2
ENCODING 31
SWIDTH 81 0
DWIDTH 2 0
BBX 2 25 0 -25
BITMAP
C0
00
00
00
00
00
00
00
00
00
00
00
00
00
00
00
00
00
00
00
00
00
00
00
00
ENDCHAR

STARTCHAR ButTop-4
ENCODING 32
SWIDTH 81 0
DWIDTH 4 0
BBX 4 25 0 -25
BITMAP
F0
00
00
00
00
00
00
00
00
00
00
00
00
00
00
00
00
00
00
00
00
00
00
00
00
ENDCHAR

STARTCHAR butTop-8
ENCODING 33
SWIDTH 81 0
DWIDTH 8 0
BBX 8 25 0 -25
BITMAP
FF
00
00
00
00
00
00
00
00
00
00
00
00
00
00
00
00
00
00
00
00
00
00
00
00
ENDCHAR

STARTCHAR butTop-16
ENCODING 34
SWIDTH 81 0
DWIDTH 16 0
BBX 16 25 0 -25
BITMAP
FFFF
0000
0000
0000
0000
0000
0000
0000
0000
0000
0000
0000
0000
0000
0000
0000
0000
0000
0000
0000
0000
0000
0000
0000
0000
ENDCHAR

STARTCHAR butBot-1
ENCODING 35
SWIDTH 81 0
DWIDTH 1 0
BBX 1 23 0 -23
BITMAP
00
00
00
00
00
00
00
00
00
00
00
00
00
00
00
00
00
00
00
00
00
00
80
ENDCHAR

STARTCHAR butBot-2
ENCODING 36
SWIDTH 81 0
DWIDTH 2 0
BBX 2 23 0 -23
BITMAP
00
00
00
00
00
00
00
00
00
00
00
00
00
00
00
00
00
00
00
00
00
00
C0
ENDCHAR

STARTCHAR butBot-4
ENCODING 37
SWIDTH 81 0
DWIDTH 4 0
BBX 4 23 0 -23
BITMAP
00
00
00
00
00
00
00
00
00
00
00
00
00
00
00
00
00
00
00
00
00
00
F0
ENDCHAR

STARTCHAR butBot-8
ENCODING 38
SWIDTH 81 0
DWIDTH 8 0
BBX 8 23 0 -23
BITMAP
00
00
00
00
00
00
00
00
00
00
00
00
00
00
00
00
00
00
00
00
00
00
FF
ENDCHAR

STARTCHAR butBot-16
ENCODING 39
SWIDTH 81 0
DWIDTH 16 0
BBX 16 23 0 -23
BITMAP
0000
0000
0000
0000
0000
0000
0000
0000
0000
0000
0000
0000
0000
0000
0000
0000
0000
0000
0000
0000
0000
0000
FFFF
ENDCHAR

STARTCHAR butFill-1
ENCODING 40
SWIDTH 81 0
DWIDTH 1 0
BBX 1 25 0 -25
BITMAP
00
80
80
80
80
80
80
80
80
80
80
80
80
80
80
80
80
80
80
80
80
80
00
00
00
ENDCHAR

STARTCHAR butFill-2
ENCODING 41
SWIDTH 81 0
DWIDTH 2 0
BBX 2 25 0 -25
BITMAP
00
C0
C0
C0
C0
C0
C0
C0
C0
C0
C0
C0
C0
C0
C0
C0
C0
C0
C0
C0
C0
C0
00
00
00
ENDCHAR

STARTCHAR butFill-4
ENCODING 42
SWIDTH 81 0
DWIDTH 4 0
BBX 4 25 0 -25
BITMAP
00
F0
F0
F0
F0
F0
F0
F0
F0
F0
F0
F0
F0
F0
F0
F0
F0
F0
F0
F0
F0
F0
00
00
00
ENDCHAR

STARTCHAR butFill-8
ENCODING 43
SWIDTH 81 0
DWIDTH 8 0
BBX 8 25 0 -25
BITMAP
00
FF
FF
FF
FF
FF
FF
FF
FF
FF
FF
FF
FF
FF
FF
FF
FF
FF
FF
FF
FF
FF
00
00
00
ENDCHAR

STARTCHAR butFill-16
ENCODING 44
SWIDTH 81 0
DWIDTH 16 0
BBX 16 25 0 -25
BITMAP
0000
FFFF
FFFF
FFFF
FFFF
FFFF
FFFF
FFFF
FFFF
FFFF
FFFF
FFFF
FFFF
FFFF
FFFF
FFFF
FFFF
FFFF
FFFF
FFFF
FFFF
FFFF
0000
0000
0000
ENDCHAR

STARTCHAR VertMeMaUL
ENCODING 45
SWIDTH 81 0
DWIDTH 0 0
BBX 11 11 0 -11
BITMAP
FFE0
8000
4000
6000
6000
3000
3000
1000
0800
0800
0000
ENDCHAR

STARTCHAR VertMeMaLR
ENCODING 46
SWIDTH 81 0
DWIDTH 0 0
BBX 11 11 0 -11
BITMAP
0000
0020
0040
00C0
00C0
0180
0180
0100
0200
0200
0400
ENDCHAR

STARTCHAR VertMeMafill
ENCODING 47
SWIDTH 81 0
DWIDTH 11 0
BBX 11 11 0 -11
BITMAP
0000
7FC0
7FC0
3F80
3F80
1F00
1F00
0E00
0E00
0400
0000
ENDCHAR

STARTCHAR HorizMeMaUL
ENCODING 48
SWIDTH 81 0
DWIDTH 0 0
BBX 11 11 0 -11
BITMAP
C000
B800
8E00
8380
8060
8000
8000
8000
8000
8000
8000
ENDCHAR

STARTCHAR HorizMeMaLR
ENCODING 49
SWIDTH 81 0
DWIDTH 0 0
BBX 11 11 0 -11
BITMAP
0000
0000
0000
0000
0000
0020
00C0
0700
1E00
3800
4000
ENDCHAR

STARTCHAR HoriMeMafill
ENCODING 50
SWIDTH 81 0
DWIDTH 11 0
BBX 11 11 0 -11
BITMAP
0000
6000
7800
7E00
7F80
7FC0
7F80
7E00
7800
6000
0000
ENDCHAR

STARTCHAR AbbMeBu-UL
ENCODING 51
SWIDTH 81 0
DWIDTH 18 0
BBX 18 18 0 -18
BITMAP
7FFF00
C00000
800000
800000
800000
800000
800000
800000
800000
800000
800000
800000
800000
800000
800000
800000
C00000
000000
ENDCHAR

STARTCHAR AbbMeBu-LR
ENCODING 52
SWIDTH 81 0
DWIDTH 18 0
BBX 18 18 0 -18
BITMAP
000000
0000C0
000040
000040
000040
000040
000040
000040
000040
000040
000040
000040
000040
000040
000040
000040
0000C0
3FFF80
ENDCHAR

STARTCHAR AbbMeBu-fill
ENCODING 53
SWIDTH 81 0
DWIDTH 18 0
BBX 18 18 0 -18
BITMAP
000000
7FFF80
7FFF80
7FFF80
7FFF80
7FFF80
7FFF80
7FFF80
7FFF80
7FFF80
7FFF80
7FFF80
7FFF80
7FFF80
7FFF80
7FFF80
7FFF80
000000
ENDCHAR

STARTCHAR VertSc-UL
ENCODING 54
SWIDTH 81 0
DWIDTH 18 0
BBX 18 55 0 -55
BITMAP
7FFF80
800000
800000
800000
800000
800000
800000
800000
800000
800000
800000
800000
800000
800000
800000
800000
800000
800000
FFFF00
800000
800000
800000
800000
800000
800000
800000
800000
800000
800000
800000
800000
800000
800000
800000
800000
800000
800000
800000
800000
800000
800000
800000
800000
800000
800000
800000
800000
800000
800000
800000
800000
800000
800000
800000
000000
ENDCHAR

STARTCHAR VertSc-LR
ENCODING 55
SWIDTH 81 0
DWIDTH 18 0
BBX 17 54 0 -54
BITMAP
000000
000080
000080
000080
000080
01C080
03E080
07F080
0FF880
1FFC80
3FFE80
3FFE80
000080
000080
000080
000080
000080
000080
000080
000080
000080
000080
000080
000080
000080
000080
000080
000080
000080
000080
000080
000080
000080
000080
000080
7FFF80
000080
000080
000080
000080
000080
000080
3FFE80
3FFE80
1FFC80
0FF880
07F080
03E080
01C080
000080
000080
000080
000080
7FFF80
ENDCHAR

STARTCHAR Vert-sb-bot-fill
ENCODING 56
SWIDTH 81 0
DWIDTH 18 0
BBX 18 19 0 -19
BITMAP
800040
7FFF00
7FFF00
7FFF00
7FFF00
7F7F00
7E3F00
7C1F00
780F00
700700
600300
600300
7FFF00
7FFF00
7FFF00
7FFF00
7FFF00
7FFF00
000000
ENDCHAR

STARTCHAR HoriScb-UL
ENCODING 57
SWIDTH 81 0
DWIDTH 55 0
BBX 54 17 0 -17
BITMAP
7FFFFFFFFFFFFC
80002000000000
80002000000000
80002000000000
80002000000000
80002000000000
80002000000000
80002000000000
80002000000000
80002000000000
80002000000000
80002000000000
80002000000000
80002000000000
80002000000000
80002000000000
80000000000000
ENDCHAR

STARTCHAR HoriSc-LR
ENCODING 58
SWIDTH 81 0
DWIDTH 55 0
BBX 54 17 0 -17
BITMAP
00000000000000
00000000100004
00300000103004
00700000103804
00F00000103C04
01F00000103E04
03F00000103F04
07F00000103F84
07F00000103F84
07F00000103F84
03F00000103F04
01F00000103E04
00F00000103C04
00700000103804
00300000103004
00000000100004
7FFFFFFFFFFFFC
ENDCHAR

STARTCHAR Ver-sb-bot-fill
ENCODING 59
SWIDTH 81 0
DWIDTH 17 0
BBX 17 20 0 -20
BITMAP
000000
7FFF00
7FFF00
7FFF00
7FFF00
7FFF00
7FFF00
7FFF00
600300
600300
700700
780F00
7C1F00
7E3F00
7F7F00
7FFF00
7FFF00
7FFF00
7FFF00
000000
ENDCHAR

STARTCHAR HoriSliContrUL
ENCODING 60
SWIDTH 81 0
DWIDTH 13 0
BBX 13 18 0 -18
BITMAP
7FF0
8000
8000
8000
8000
8000
8000
8000
8000
8000
8000
8000
8000
8000
8000
8000
8000
0000
ENDCHAR

STARTCHAR HoriSliContrLR
ENCODING 61
SWIDTH 81 0
DWIDTH 13 0
BBX 13 18 0 -18
BITMAP
0000
0008
0008
0008
0008
0008
0008
0008
0008
0008
0008
0008
0008
0008
0008
0008
0008
7FF0
ENDCHAR

STARTCHAR HoriSliContrfill
ENCODING 62
SWIDTH 81 0
DWIDTH 13 0
BBX 13 18 0 -18
BITMAP
8008
7FF0
7FF0
7FF0
7FF0
7FF0
7FF0
7FF0
7FF0
7FF0
7FF0
7FF0
7FF0
7FF0
7FF0
7FF0
7FF0
8008
ENDCHAR

STARTCHAR HoriSlid-UL
ENCODING 63
SWIDTH 81 0
DWIDTH 4 0
BBX 4 7 0 -7
BITMAP
30
40
80
80
80
00
00
ENDCHAR

STARTCHAR @
ENCODING 64
SWIDTH 81 0
DWIDTH 4 0
BBX 4 7 0 -7
BITMAP
00
00
00
00
00
40
30
ENDCHAR

STARTCHAR HorizSlider-UR
ENCODING 65
SWIDTH 81 0
DWIDTH 3 0
BBX 4 7 0 -7
BITMAP
C0
20
00
00
00
00
00
ENDCHAR

STARTCHAR B
ENCODING 66
SWIDTH 81 0
DWIDTH 4 0
BBX 4 7 0 -7
BITMAP
00
00
10
10
10
20
C0
ENDCHAR

STARTCHAR HorizSliderBot-1
ENCODING 67
SWIDTH 81 0
DWIDTH 1 0
BBX 1 7 0 -7
BITMAP
00
00
00
00
00
00
80
ENDCHAR

STARTCHAR HorizSliderBot-2
ENCODING 68
SWIDTH 81 0
DWIDTH 2 0
BBX 2 7 0 -7
BITMAP
00
00
00
00
00
00
C0
ENDCHAR

STARTCHAR HorizSliderBot-4
ENCODING 69
SWIDTH 81 0
DWIDTH 4 0
BBX 4 7 0 -7
BITMAP
00
00
00
00
00
00
F0
ENDCHAR

STARTCHAR HorizSliderBot-8
ENCODING 70
SWIDTH 81 0
DWIDTH 8 0
BBX 8 7 0 -7
BITMAP
00
00
00
00
00
00
FF
ENDCHAR

STARTCHAR HorizSliderBot-16
ENCODING 71
SWIDTH 81 0
DWIDTH 16 0
BBX 16 7 0 -7
BITMAP
0000
0000
0000
0000
0000
0000
FFFF
ENDCHAR

STARTCHAR HorizSlidFill-1
ENCODING 72
SWIDTH 81 0
DWIDTH 1 0
BBX 1 7 0 -7
BITMAP
00
80
80
80
80
80
00
ENDCHAR

STARTCHAR HorizSlidFill-2
ENCODING 73
SWIDTH 81 0
DWIDTH 2 0
BBX 2 7 0 -7
BITMAP
00
C0
C0
C0
C0
C0
00
ENDCHAR

STARTCHAR HorizSlidFill-4
ENCODING 74
SWIDTH 81 0
DWIDTH 4 0
BBX 4 7 0 -7
BITMAP
00
F0
F0
F0
F0
F0
00
ENDCHAR

STARTCHAR HorizSlidFill-8
ENCODING 75
SWIDTH 81 0
DWIDTH 8 0
BBX 8 7 0 -7
BITMAP
00
FF
FF
FF
FF
FF
00
ENDCHAR

STARTCHAR HorizSlidFill-16
ENCODING 76
SWIDTH 81 0
DWIDTH 16 0
BBX 16 7 0 -7
BITMAP
0000
FFFF
FFFF
FFFF
FFFF
FFFF
0000
ENDCHAR

STARTCHAR HorSliderLeftEndCApF
ENCODING 77
SWIDTH 81 0
DWIDTH 4 0
BBX 4 7 0 -7
BITMAP
00
30
70
70
70
30
00
ENDCHAR

STARTCHAR HorSliderRightEndCap
ENCODING 78
SWIDTH 81 0
DWIDTH 3 0
BBX 3 7 0 -7
BITMAP
00
C0
E0
E0
E0
C0
00
ENDCHAR

STARTCHAR VertSlider-TL
ENCODING 79
SWIDTH 81 0
DWIDTH 7 0
BBX 7 4 0 -4
BITMAP
38
40
80
80
ENDCHAR

STARTCHAR VertSlider-TR
ENCODING 80
SWIDTH 81 0
DWIDTH 7 0
BBX 7 4 0 -4
BITMAP
00
04
02
02
ENDCHAR

STARTCHAR VertSlider-TFill
ENCODING 81
SWIDTH 81 0
DWIDTH 7 0
BBX 8 4 0 -4
BITMAP
00
3C
7C
7C
ENDCHAR

STARTCHAR VertSlider-LL
ENCODING 82
SWIDTH 81 0
DWIDTH 7 0
BBX 7 4 0 -4
BITMAP
80
80
40
00
ENDCHAR

STARTCHAR VertSlider-LR
ENCODING 83
SWIDTH 81 0
DWIDTH 7 0
BBX 7 4 0 -4
BITMAP
02
02
04
38
ENDCHAR

STARTCHAR VertSliderBotFill
ENCODING 84
SWIDTH 81 0
DWIDTH 7 0
BBX 7 4 0 -4
BITMAP
7C
7C
38
00
ENDCHAR

STARTCHAR VertSliderControl-TL
ENCODING 85
SWIDTH 81 0
DWIDTH 18 0
BBX 18 13 0 -13
BITMAP
7FFF80
800000
800000
800000
800000
800000
800000
800000
800000
800000
800000
800000
000000
ENDCHAR

STARTCHAR VertSliderControl-LR
ENCODING 86
SWIDTH 81 0
DWIDTH 18 0
BBX 18 13 0 -13
BITMAP
000000
000040
000040
000040
000040
000040
000040
000040
000040
000040
000040
000040
7FFF80
ENDCHAR

STARTCHAR VertSliderControlFil
ENCODING 87
SWIDTH 81 0
DWIDTH 18 0
BBX 18 13 0 -13
BITMAP
800040
7FFF80
7FFF80
7FFF80
7FFF80
7FFF80
7FFF80
7FFF80
7FFF80
7FFF80
7FFF80
7FFF80
800040
ENDCHAR

STARTCHAR ULresizeUL
ENCODING 88
SWIDTH 81 0
DWIDTH 12 0
BBX 12 12 0 -12
BITMAP
FFF0
8000
8000
8000
8000
8000
8000
8000
8000
8000
8000
8000
ENDCHAR

STARTCHAR ULresizeLR
ENCODING 89
SWIDTH 81 0
DWIDTH 12 0
BBX 12 12 0 -12
BITMAP
0000
0010
0010
0010
0FF0
0800
0800
0800
0800
0800
0800
7800
ENDCHAR

STARTCHAR ULresizeFill
ENCODING 90
SWIDTH 81 0
DWIDTH 12 0
BBX 12 12 0 -12
BITMAP
0000
7FE0
7FE0
7FE0
7800
7000
7000
7000
7000
7000
7000
0000
ENDCHAR

STARTCHAR URResizeUL
ENCODING 91
SWIDTH 81 0
DWIDTH 12 0
BBX 12 12 0 -12
BITMAP
FFF0
8000
8000
8000
8000
0100
0100
0100
0100
0100
0100
0100
ENDCHAR

STARTCHAR URResizeLR
ENCODING 92
SWIDTH 81 0
DWIDTH 12 0
BBX 12 12 0 -12
BITMAP
0000
0010
0010
0010
7E10
0010
0010
0010
0010
0010
0010
00F0
ENDCHAR

STARTCHAR URResizeFill
ENCODING 93
SWIDTH 81 0
DWIDTH 12 0
BBX 12 12 0 -12
BITMAP
0000
7FE0
7FE0
7FE0
01E0
00E0
00E0
00E0
00E0
00E0
00E0
0000
ENDCHAR

STARTCHAR LRresizeUL
ENCODING 94
SWIDTH 81 0
DWIDTH 12 0
BBX 12 12 0 -12
BITMAP
01F0
0100
0100
0100
0100
0100
0100
FF00
8000
8000
8000
8000
ENDCHAR

STARTCHAR LRresizeLR
ENCODING 95
SWIDTH 81 0
DWIDTH 12 0
BBX 12 12 0 -12
BITMAP
0000
0010
0010
0010
0010
0010
0010
0010
0010
0010
0010
7FF0
ENDCHAR

STARTCHAR LRresizeFill
ENCODING 96
SWIDTH 81 0
DWIDTH 12 0
BBX 12 12 0 -12
BITMAP
0000
00E0
00E0
00E0
00E0
00E0
00E0
01E0
7FE0
7FE0
7FE0
0000
ENDCHAR

STARTCHAR LLresizeUL
ENCODING 97
SWIDTH 81 0
DWIDTH 12 0
BBX 12 12 0 -12
BITMAP
F800
8000
8000
8000
8000
8000
8000
87F0
8000
8000
8000
8000
ENDCHAR

STARTCHAR LLresizeLR
ENCODING 98
SWIDTH 81 0
DWIDTH 12 0
BBX 12 12 0 -12
BITMAP
0000
0800
0800
0800
0800
0800
0800
0000
0010
0010
0010
7FF0
ENDCHAR

STARTCHAR LLresizeFill
ENCODING 99
SWIDTH 81 0
DWIDTH 12 0
BBX 11 11 0 -11
BITMAP
0000
7000
7000
7000
7000
7000
7000
7FE0
7FE0
7FE0
7FE0
ENDCHAR

STARTCHAR PushPinOutTop
ENCODING 100
SWIDTH 81 0
DWIDTH 24 0
BBX 24 12 0 -12
BITMAP
000700
000406
0004FC
0004FC
00040C
0FFC0C
00040C
00040C
000400
000400
300400
600400
ENDCHAR

STARTCHAR PushPinOutBottom
ENCODING 101
SWIDTH 81 0
DWIDTH 24 0
BBX 24 12 0 -12
BITMAP
000000
000100
000101
000101
000101
000101
07F98D
0001FD
4001FF
C00307
800300
000300
ENDCHAR

STARTCHAR PushPinOutFill
ENCODING 102
SWIDTH 81 0
DWIDTH 24 0
BBX 24 12 0 -12
BITMAP
000000
000300
000306
0003FE
0003FE
0003FE
0003FE
0003FE
000306
600200
600000
000000
ENDCHAR

STARTCHAR PushPinInTop
ENCODING 103
SWIDTH 81 0
DWIDTH 13 0
BBX 13 13 0 -13
BITMAP
01C0
0E40
3800
4800
5800
9800
9800
8000
C000
4000
4000
8000
0000
ENDCHAR

STARTCHAR PushPinInBottom
ENCODING 104
SWIDTH 81 0
DWIDTH 13 0
BBX 13 13 0 -13
BITMAP
0000
0030
0010
0018
0008
0008
0018
0C10
0FF0
07E0
31E0
7FC0
CF00
ENDCHAR

STARTCHAR PushPinInFill
ENCODING 105
SWIDTH 81 0
DWIDTH 13 0
BBX 13 13 0 -13
BITMAP
0000
03C0
17E0
3FF0
3FF0
7FF0
77F0
7FE0
39C0
3E00
1F00
0000
0000
ENDCHAR

STARTCHAR DefButRightEndCAp
ENCODING 106
SWIDTH 81 0
DWIDTH 16 0
BBX 16 22 0 -22
BITMAP
0000
003F
00FF
0380
0600
0C00
1800
1000
3000
2000
2000
2000
2000
2000
3000
1800
1800
0C00
0700
03C0
00FF
0000
ENDCHAR

STARTCHAR DefButRightEndCAp
ENCODING 107
SWIDTH 81 0
DWIDTH 16 0
BBX 16 22 0 -22
BITMAP
0000
FC00
FF00
01C0
0060
0030
0018
0008
000C
0004
0004
0004
0004
0004
000C
0018
0018
0030
00E0
03C0
FF00
0000
ENDCHAR

STARTCHAR DefButMiddle-1
ENCODING 108
SWIDTH 81 0
DWIDTH 1 0
BBX 1 22 0 -22
BITMAP
00
80
80
00
00
00
00
00
00
00
00
00
00
00
00
00
00
00
00
00
80
00
ENDCHAR

STARTCHAR DefButMiddle-2
ENCODING 109
SWIDTH 81 0
DWIDTH 2 0
BBX 2 22 0 -22
BITMAP
00
C0
C0
00
00
00
00
00
00
00
00
00
00
00
00
00
00
00
00
00
C0
00
ENDCHAR

STARTCHAR DefButMiddle-4
ENCODING 110
SWIDTH 81 0
DWIDTH 4 0
BBX 4 22 0 -22
BITMAP
00
F0
F0
00
00
00
00
00
00
00
00
00
00
00
00
00
00
00
00
00
F0
00
ENDCHAR

STARTCHAR DefButMiddle-8
ENCODING 111
SWIDTH 81 0
DWIDTH 8 0
BBX 8 22 0 -22
BITMAP
00
FF
FF
00
00
00
00
00
00
00
00
00
00
00
00
00
00
00
00
00
FF
00
ENDCHAR

STARTCHAR DefButMiddle-16
ENCODING 112
SWIDTH 81 0
DWIDTH 16 0
BBX 16 22 0 -22
BITMAP
0000
FFFF
FFFF
0000
0000
0000
0000
0000
0000
0000
0000
0000
0000
0000
0000
0000
0000
0000
0000
0000
FFFF
0000
ENDCHAR

STARTCHAR BaseOff-SpecialChar
ENCODING 113
SWIDTH 81 0
DWIDTH 1 0
BBX 1 8 0 -8
BITMAP
80
80
80
80
80
80
80
80
ENDCHAR

STARTCHAR UnCheckedBox-UL
ENCODING 114
SWIDTH 81 0
DWIDTH 22 0
BBX 22 19 0 -19
BITMAP
000000
000000
FFFF80
800000
800000
800000
800000
800000
800000
800000
800000
800000
800000
800000
800000
800000
800000
800000
800000
ENDCHAR

STARTCHAR UnCheckedBox-LR
ENCODING 115
SWIDTH 81 0
DWIDTH 22 0
BBX 22 19 0 -19
BITMAP
000000
000000
000080
000080
000080
000080
000080
000080
000080
000080
000080
000080
000080
000080
000080
000080
000080
000080
7FFF80
ENDCHAR

STARTCHAR UnCheckedBoxFill
ENCODING 116
SWIDTH 81 0
DWIDTH 17 0
BBX 18 19 0 -19
BITMAP
000000
000000
7FFF00
7FFF00
7FFF00
7FFF00
7FFF00
7FFF00
7FFF00
7FFF00
7FFF00
7FFF00
7FFF00
7FFF00
7FFF00
7FFF00
7FFF00
7FFF00
000000
ENDCHAR

STARTCHAR CheckMark
ENCODING 117
SWIDTH 81 0
DWIDTH 22 0
BBX 22 19 0 -19
BITMAP
00000C
000038
0000E0
0003C0
000780
000700
000E00
081E00
1C3C00
3F7800
7FF800
7FF000
3FE000
1FE000
0FC000
07C000
03C000
018000
000000
ENDCHAR

STARTCHAR CheckedBoxFill
ENCODING 118
SWIDTH 81 0
DWIDTH 22 0
BBX 23 20 0 -20
BITMAP
000000
000000
7FFF80
7FFF00
7FFC00
7FF880
7FF180
77E100
63C300
618700
400700
400F00
601F00
701F00
783F00
7C3F00
7E7F00
7F7F00
000000
000000
ENDCHAR

STARTCHAR UnCheckedBoxOutline
ENCODING 119
SWIDTH 81 0
DWIDTH 22 0
BBX 22 19 0 -19
BITMAP
000000
000000
FFFF80
800080
800080
800080
800080
800080
800080
800080
800080
800080
800080
800080
800080
800080
800080
800080
FFFF80
ENDCHAR

STARTCHAR Horizgauge-UL
ENCODING 120
SWIDTH 81 0
DWIDTH 6 0
BBX 6 16 0 -16
BITMAP
04
18
20
60
40
80
80
80
80
80
80
40
60
20
00
00
ENDCHAR

STARTCHAR Horizgauge-LL
ENCODING 121
SWIDTH 81 0
DWIDTH 6 0
BBX 6 16 0 -16
BITMAP
00
00
00
00
00
00
00
00
00
00
00
00
00
00
18
04
ENDCHAR

STARTCHAR Horizgauge-UR
ENCODING 122
SWIDTH 81 0
DWIDTH 6 0
BBX 6 15 0 -15
BITMAP
80
60
00
00
00
00
00
00
00
00
00
00
00
00
00
ENDCHAR

STARTCHAR Horizgauge-LR
ENCODING 123
SWIDTH 81 0
DWIDTH 6 0
BBX 6 16 0 -16
BITMAP
00
00
10
18
08
04
04
04
04
04
04
08
18
10
60
80
ENDCHAR

STARTCHAR Horizgauge-MidleBot-
ENCODING 124
SWIDTH 81 0
DWIDTH 1 0
BBX 1 16 0 -16
BITMAP
00
00
00
00
00
00
00
00
00
00
00
00
00
00
00
80
ENDCHAR

STARTCHAR Horizgauge-MidleBot-
ENCODING 125
SWIDTH 81 0
DWIDTH 2 0
BBX 2 16 0 -16
BITMAP
00
00
00
00
00
00
00
00
00
00
00
00
00
00
00
C0
ENDCHAR

STARTCHAR Horizgauge-MidleBot-
ENCODING 126
SWIDTH 81 0
DWIDTH 4 0
BBX 4 16 0 -16
BITMAP
00
00
00
00
00
00
00
00
00
00
00
00
00
00
00
F0
ENDCHAR

STARTCHAR Horizgauge-MidleBot-
ENCODING 127
SWIDTH 81 0
DWIDTH 8 0
BBX 8 16 0 -16
BITMAP
00
00
00
00
00
00
00
00
00
00
00
00
00
00
00
FF
ENDCHAR

STARTCHAR Horizgauge-MidleBot-
ENCODING 128
SWIDTH 81 0
DWIDTH 16 0
BBX 16 16 0 -16
BITMAP
0000
0000
0000
0000
0000
0000
0000
0000
0000
0000
0000
0000
0000
0000
0000
FFFF
ENDCHAR

STARTCHAR VertGauge-UL
ENCODING 129
SWIDTH 81 0
DWIDTH 15 0
BBX 15 6 0 -6
BITMAP
07E0
1810
3000
4000
4000
8000
ENDCHAR

STARTCHAR VertGauge-UR
ENCODING 130
SWIDTH 81 0
DWIDTH 16 0
BBX 16 6 0 -6
BITMAP
0000
0000
000C
0002
0002
0001
ENDCHAR

STARTCHAR VertGauge-LL
ENCODING 131
SWIDTH 81 0
DWIDTH 16 0
BBX 16 6 0 -6
BITMAP
8000
4000
4000
3000
0000
0000
ENDCHAR

STARTCHAR VertGauge-LR
ENCODING 132
SWIDTH 81 0
DWIDTH 15 0
BBX 15 6 0 -6
BITMAP
0002
0004
0004
0018
1030
0FC0
ENDCHAR

STARTCHAR VertAbbrScroBarUL
ENCODING 133
SWIDTH 81 0
DWIDTH 22 0
BBX 18 38 0 -38
BITMAP
7FFF80
800000
800000
800000
800000
800000
800000
800000
800000
800000
800000
800000
800000
800000
800000
800000
800000
800000
800000
800000
800000
800000
800000
800000
800000
800000
800000
800000
800000
800000
800000
800000
800000
800000
800000
800000
800000
000000
ENDCHAR

STARTCHAR VertAbbrScroBarLR
ENCODING 134
SWIDTH 81 0
DWIDTH 18 0
BBX 17 37 0 -37
BITMAP
000000
000080
000080
000080
000080
008080
01C080
03E080
07F080
1FFC80
3FFE80
3FFE80
000080
000080
000080
000080
000080
000080
7FFF80
000080
000080
000080
000080
000080
000080
3FFE80
3FFE80
1FFC80
07F080
03E080
01C080
008080
000080
000080
000080
000080
7FFF80
ENDCHAR

STARTCHAR Horiz-sb-rightbox-fi
ENCODING 135
SWIDTH 81 0
DWIDTH 20 0
BBX 20 18 0 -18
BITMAP
000010
7FFFC0
7FFFC0
7E7FC0
7E3FC0
7E1FC0
7E0FC0
7E07C0
7E03C0
7E07C0
7E0FC0
7E1FC0
7E3FC0
7E7FC0
7FFFC0
7FFFC0
000000
000010
ENDCHAR

STARTCHAR HoriabbScrBa-UL
ENCODING 136
SWIDTH 81 0
DWIDTH 38 0
BBX 38 18 0 -18
BITMAP
7FFFFFFFF0
8000000000
8000000000
8000000000
8000000000
8000000000
8000000000
8000000000
8000000000
8000000000
8000000000
8000000000
8000000000
8000000000
8000000000
8000000000
8000000000
0000000000
ENDCHAR

STARTCHAR HorizAbbScroBa-LR
ENCODING 137
SWIDTH 81 0
DWIDTH 38 0
BBX 37 17 0 -17
BITMAP
0000000000
0000200008
0030206008
0070207008
0070207008
00F0207808
01F0207C08
03F0207E08
07F0207F08
03F0207E08
01F0207C08
00F0207808
0070207008
0070207008
0030206008
0000200008
7FFFFFFFF8
ENDCHAR

STARTCHAR Horiz-sb-leftbox-fil
ENCODING 138
SWIDTH 81 0
DWIDTH 19 0
BBX 18 18 0 -18
BITMAP
800000
7FFFC0
7FFFC0
7FCFC0
7F8FC0
7F0FC0
7E0FC0
7C0FC0
780FC0
7C0FC0
7E0FC0
7F0FC0
7F8FC0
7FCFC0
7FFFC0
7FFFC0
000000
800000
ENDCHAR

STARTCHAR ButOutlLeftEndCAp
ENCODING 139
SWIDTH 81 0
DWIDTH 16 0
BBX 16 24 0 -24
BITMAP
007F
0380
0E00
1800
3000
2000
6000
4000
C000
8000
8000
8000
8000
8000
C000
4000
6000
6000
3000
1800
0E00
0780
01FF
007F
ENDCHAR

STARTCHAR ButOutRightEndCap
ENCODING 140
SWIDTH 81 0
DWIDTH 16 0
BBX 16 24 0 -24
BITMAP
FE00
01C0
00F0
0038
001C
000C
000E
0006
0006
0003
0003
0003
0003
0003
0003
0007
0006
000E
001C
001C
0078
01F0
FFE0
FF00
ENDCHAR

STARTCHAR ButOutlMiddle-1
ENCODING 141
SWIDTH 81 0
DWIDTH 1 0
BBX 1 24 0 -24
BITMAP
80
00
00
00
00
00
00
00
00
00
00
00
00
00
00
00
00
00
00
00
00
00
80
80
ENDCHAR

STARTCHAR ButOutlMiddle-2
ENCODING 142
SWIDTH 81 0
DWIDTH 2 0
BBX 2 24 0 -24
BITMAP
C0
00
00
00
00
00
00
00
00
00
00
00
00
00
00
00
00
00
00
00
00
00
C0
C0
ENDCHAR

STARTCHAR ButOutlMiddle-4
ENCODING 143
SWIDTH 81 0
DWIDTH 4 0
BBX 4 24 0 -24
BITMAP
F0
00
00
00
00
00
00
00
00
00
00
00
00
00
00
00
00
00
00
00
00
00
F0
F0
ENDCHAR

STARTCHAR ButOutlMiddle-8
ENCODING 144
SWIDTH 81 0
DWIDTH 8 0
BBX 8 24 0 -24
BITMAP
FF
00
00
00
00
00
00
00
00
00
00
00
00
00
00
00
00
00
00
00
00
00
FF
FF
ENDCHAR

STARTCHAR ButOutlMiddle-16
ENCODING 145
SWIDTH 81 0
DWIDTH 16 0
BBX 16 24 0 -24
BITMAP
FFFF
0000
0000
0000
0000
0000
0000
0000
0000
0000
0000
0000
0000
0000
0000
0000
0000
0000
0000
0000
0000
0000
FFFF
FFFF
ENDCHAR

STARTCHAR ButOutlLeftEndCApFil
ENCODING 146
SWIDTH 81 0
DWIDTH 16 0
BBX 16 23 0 -23
BITMAP
0000
0000
003F
00FF
03FF
07FF
0FFF
0FFF
1FFF
1FFF
3FFF
3FFF
3FFF
1FFF
1FFF
0FFF
0FFF
07FF
03FF
00FF
003F
0000
0000
ENDCHAR

STARTCHAR ButOutlRightEndCap
ENCODING 147
SWIDTH 81 0
DWIDTH 13 0
BBX 16 23 0 -23
BITMAP
0000
0000
FC00
FF00
FFC0
FFE0
FFF0
FFF0
FFF8
FFF8
FFFC
FFFC
FFFC
FFF8
FFF8
FFF0
FFF0
FFE0
FFC0
FF00
FC00
0000
0000
ENDCHAR

STARTCHAR ButOutlMiddleFill-1
ENCODING 148
SWIDTH 81 0
DWIDTH 1 0
BBX 1 23 0 -23
BITMAP
00
00
80
80
80
80
80
80
80
80
80
80
80
80
80
80
80
80
80
80
00
00
00
ENDCHAR

STARTCHAR ButOutlMiddleFill-2
ENCODING 149
SWIDTH 81 0
DWIDTH 2 0
BBX 2 23 0 -23
BITMAP
00
00
C0
C0
C0
C0
C0
C0
C0
C0
C0
C0
C0
C0
C0
C0
C0
C0
C0
C0
00
00
00
ENDCHAR

STARTCHAR ButOutlMiddleFill-4
ENCODING 150
SWIDTH 81 0
DWIDTH 4 0
BBX 4 23 0 -23
BITMAP
00
00
F0
F0
F0
F0
F0
F0
F0
F0
F0
F0
F0
F0
F0
F0
F0
F0
F0
F0
00
00
00
ENDCHAR

STARTCHAR ButOutlMiddleFill-8
ENCODING 151
SWIDTH 81 0
DWIDTH 8 0
BBX 8 23 0 -23
BITMAP
00
00
FF
FF
FF
FF
FF
FF
FF
FF
FF
FF
FF
FF
FF
FF
FF
FF
FF
FF
00
00
00
ENDCHAR

STARTCHAR ButOutlMiddleFill-16
ENCODING 152
SWIDTH 81 0
DWIDTH 16 0
BBX 16 23 0 -23
BITMAP
0000
0000
FFFF
FFFF
FFFF
FFFF
FFFF
FFFF
FFFF
FFFF
FFFF
FFFF
FFFF
FFFF
FFFF
FFFF
FFFF
FFFF
FFFF
FFFF
0000
0000
0000
ENDCHAR

STARTCHAR MenuDfltOutlLeftEndc
ENCODING 153
SWIDTH 81 0
DWIDTH 12 0
BBX 12 20 0 -20
BITMAP
01F0
0600
1800
2000
2000
4000
4000
8000
8000
8000
8000
8000
8000
4000
4000
2000
2000
1800
0600
01F0
ENDCHAR

STARTCHAR MenuDfltOutlRightEnd
ENCODING 154
SWIDTH 81 0
DWIDTH 12 0
BBX 12 20 0 -20
BITMAP
F800
0600
0180
0040
0040
0020
0020
0010
0010
0010
0010
0010
0010
0020
0020
0040
0040
0180
0600
F800
ENDCHAR

STARTCHAR MenuDfltOutlMiddle-1
ENCODING 155
SWIDTH 81 0
DWIDTH 1 0
BBX 1 20 0 -20
BITMAP
80
00
00
00
00
00
00
00
00
00
00
00
00
00
00
00
00
00
00
80
ENDCHAR

STARTCHAR MenuDfltOutlMiddle-2
ENCODING 156
SWIDTH 81 0
DWIDTH 2 0
BBX 2 20 0 -20
BITMAP
C0
00
00
00
00
00
00
00
00
00
00
00
00
00
00
00
00
00
00
C0
ENDCHAR

STARTCHAR MenuDfltOutlMiddle-4
ENCODING 157
SWIDTH 81 0
DWIDTH 4 0
BBX 4 20 0 -20
BITMAP
F0
00
00
00
00
00
00
00
00
00
00
00
00
00
00
00
00
00
00
F0
ENDCHAR

STARTCHAR MenuDfltOutlMiddle-8
ENCODING 158
SWIDTH 81 0
DWIDTH 8 0
BBX 8 20 0 -20
BITMAP
FF
00
00
00
00
00
00
00
00
00
00
00
00
00
00
00
00
00
00
FF
ENDCHAR

STARTCHAR MenuDfltOutlMiddle-16
ENCODING 159
SWIDTH 81 0
DWIDTH 16 0
BBX 16 20 0 -20
BITMAP
FFFF
0000
0000
0000
0000
0000
0000
0000
0000
0000
0000
0000
0000
0000
0000
0000
0000
0000
0000
FFFF
ENDCHAR

STARTCHAR ButtonSpecial-UL
ENCODING 160
SWIDTH 81 0
DWIDTH 6 0
BBX 6 6 0 -6
BITMAP
1C
70
40
C0
80
80
ENDCHAR

STARTCHAR ButtonSpecial-LL
ENCODING 161
SWIDTH 81 0
DWIDTH 6 0
BBX 6 6 0 -6
BITMAP
80
80
C0
40
70
1C
ENDCHAR

STARTCHAR REsizeOutl-UL
ENCODING 162
SWIDTH 81 0
DWIDTH 12 0
BBX 12 12 0 -12
BITMAP
FFF0
8010
8010
8010
8FF0
8800
8800
8800
8800
8800
8800
F800
ENDCHAR

STARTCHAR REsizeOutl-UR
ENCODING 163
SWIDTH 81 0
DWIDTH 12 0
BBX 12 12 0 -12
BITMAP
FFF0
8010
8010
8010
FF10
0110
0110
0110
0110
0110
0110
01F0
ENDCHAR

STARTCHAR REsizeOutl-LR
ENCODING 164
SWIDTH 81 0
DWIDTH 12 0
BBX 12 12 0 -12
BITMAP
01F0
0110
0110
0110
0110
0110
0110
FF10
8010
8010
8010
FFF0
ENDCHAR

STARTCHAR REsizeOutl-LL
ENCODING 165
SWIDTH 81 0
DWIDTH 12 0
BBX 12 12 0 -12
BITMAP
F800
8800
8800
8800
8800
8800
8800
8FF0
8010
8010
8010
FFF0
ENDCHAR

STARTCHAR VerticalScrollbarEle
ENCODING 166
SWIDTH 81 0
DWIDTH 18 0
BBX 18 55 0 -55
BITMAP
7FFF80
8000C0
8000C0
8000C0
8000C0
8080C0
83C0C0
87E0C0
8FF0C0
9FF8C0
BBF4C0
95E8C0
8000C0
8000C0
8000C0
8000C0
8000C0
8000C0
FFFFC0
8000C0
8000C0
8000C0
8000C0
8000C0
8000C0
8000C0
8000C0
8000C0
8000C0
8000C0
8000C0
8000C0
8000C0
8000C0
8000C0
FFFFC0
FFFFC0
8000C0
8000C0
8000C0
8000C0
8000C0
9FFEC0
BFFEC0
9FFCC0
8FF8C0
87F0C0
83E0C0
81C0C0
8000C0
8000C0
8000C0
8000C0
FFFFC0
7FFF80
ENDCHAR

STARTCHAR VerticalScrollbarEle
ENCODING 167
SWIDTH 81 0
DWIDTH 19 0
BBX 18 55 0 -55
BITMAP
7FFF80
8000C0
8000C0
8000C0
8000C0
81C0C0
83E0C0
87F0C0
8FF8C0
9FFCC0
BFFEC0
BFFEC0
8000C0
8000C0
8000C0
8000C0
8000C0
8000C0
FFFFC0
8000C0
8000C0
8000C0
8000C0
8000C0
8000C0
8000C0
8000C0
8000C0
8000C0
8000C0
8000C0
8000C0
8000C0
8000C0
8000C0
FFFFC0
FFFFC0
8000C0
8000C0
8000C0
8000C0
8000C0
9528C0
BBF4C0
9DE8C0
8FF0C0
87E0C0
83C0C0
8180C0
8000C0
8000C0
8000C0
8000C0
FFFFC0
7FFF80
ENDCHAR

STARTCHAR VerticalScrollbarEle
ENCODING 168
SWIDTH 81 0
DWIDTH 18 0
BBX 18 55 0 -55
BITMAP
7FFF80
8000C0
8000C0
8000C0
8000C0
8080C0
83C0C0
87E0C0
8FF0C0
9FF8C0
BBF4C0
95E8C0
8000C0
8000C0
8000C0
8000C0
8000C0
8000C0
FFFFC0
8000C0
8000C0
8000C0
8000C0
8000C0
8000C0
8000C0
8000C0
8000C0
8000C0
8000C0
8000C0
8000C0
8000C0
8000C0
8000C0
FFFFC0
FFFFC0
8000C0
8000C0
8000C0
8000C0
8000C0
9528C0
BBF4C0
9DE8C0
8FF0C0
87E0C0
83C0C0
8180C0
8000C0
8000C0
8000C0
8000C0
FFFFC0
7FFF80
ENDCHAR

STARTCHAR HorizontalScrollbarE
ENCODING 169
SWIDTH 81 0
DWIDTH 55 0
BBX 55 18 0 -18
BITMAP
7FFFFFFFFFFFFC
80002000180006
80002000181006
80202000183806
80702000183C06
80E02000183E06
81D02000183F06
83E02000183F86
87F02000183F86
87F02000183F86
83E02000183F06
81D02000183E06
80E02000183C06
80702000183806
80202000183006
80002000180006
FFFFFFFFFFFFFE
7FFFFFFFFFFFFC
ENDCHAR

STARTCHAR HorizontalScrollbarE
ENCODING 170
SWIDTH 81 0
DWIDTH 56 0
BBX 55 18 0 -18
BITMAP
7FFFFFFFFFFFFC
80002000180006
80302000181006
80702000183806
80F02000181C06
81F02000182E06
83F02000181706
87F02000183F86
87F02000181F86
87F02000181F06
83F02000183E06
81F02000181406
80F02000182806
80702000181006
80302000180006
80002000180006
FFFFFFFFFFFFFE
7FFFFFFFFFFFFC
ENDCHAR

STARTCHAR HorizontalScrollbarE
ENCODING 171
SWIDTH 81 0
DWIDTH 55 0
BBX 55 18 0 -18
BITMAP
7FFFFFFFFFFFFC
80002000180006
80002000181006
80202000183806
80702000181C06
80E02000182E06
81D02000181706
83E02000183F86
87F02000181F86
87F02000181F06
83E02000183E06
81D02000181406
80E02000182806
80702000181006
80202000180006
80002000180006
FFFFFFFFFFFFFE
7FFFFFFFFFFFFC
ENDCHAR

STARTCHAR C172
ENCODING 172
SWIDTH 81 0
DWIDTH 13 0
BBX 13 18 0 -18
BITMAP
7FF0
8018
8018
8018
8018
8018
8018
8018
8018
8018
8018
8018
8018
8018
8018
8018
FFF8
7FF0
ENDCHAR

STARTCHAR HorizSliderLeftEndca
ENCODING 173
SWIDTH 81 0
DWIDTH 4 0
BBX 4 7 0 -7
BITMAP
30
40
80
80
80
40
30
ENDCHAR

STARTCHAR HorizSliderRightEndc
ENCODING 174
SWIDTH 81 0
DWIDTH 4 0
BBX 4 7 0 -7
BITMAP
C0
20
10
10
10
20
C0
ENDCHAR

STARTCHAR HorizSliderMiddle-1
ENCODING 175
SWIDTH 81 0
DWIDTH 1 0
BBX 1 7 0 -7
BITMAP
80
00
00
00
00
00
80
ENDCHAR

STARTCHAR HorizSliderMiddle-2
ENCODING 176
SWIDTH 81 0
DWIDTH 2 0
BBX 2 7 0 -7
BITMAP
C0
00
00
00
00
00
C0
ENDCHAR

STARTCHAR HorizSliderMiddle-4
ENCODING 177
SWIDTH 81 0
DWIDTH 4 0
BBX 4 7 0 -7
BITMAP
F0
00
00
00
00
00
F0
ENDCHAR

STARTCHAR HorizSliderMiddle-8
ENCODING 178
SWIDTH 81 0
DWIDTH 8 0
BBX 8 7 0 -7
BITMAP
FF
00
00
00
00
00
FF
ENDCHAR

STARTCHAR HorizSliderMiddle-16
ENCODING 179
SWIDTH 81 0
DWIDTH 16 0
BBX 16 7 0 -7
BITMAP
FFFF
0000
0000
0000
0000
0000
FFFF
ENDCHAR

STARTCHAR VertSliderTopEndcap
ENCODING 180
SWIDTH 81 0
DWIDTH 7 0
BBX 7 4 0 -4
BITMAP
38
44
82
82
ENDCHAR

STARTCHAR VertSliderBottomEndc
ENCODING 181
SWIDTH 81 0
DWIDTH 7 0
BBX 7 4 0 -4
BITMAP
82
82
44
38
ENDCHAR

STARTCHAR VertSliderControlOut
ENCODING 182
SWIDTH 81 0
DWIDTH 18 0
BBX 18 13 0 -13
BITMAP
7FFF80
8000C0
8000C0
8000C0
8000C0
8000C0
8000C0
8000C0
8000C0
8000C0
8000C0
FFFFC0
7FFF80
ENDCHAR

STARTCHAR PushPinOutDefTop
ENCODING 183
SWIDTH 81 0
DWIDTH 23 0
BBX 23 13 0 -13
BITMAP
000600
000406
0004F8
0004F8
000408
0FFC08
000408
000408
780408
C00400
880400
880400
B80000
ENDCHAR

STARTCHAR PushPinDefOutBottom
ENCODING 184
SWIDTH 81 0
DWIDTH 24 0
BBX 24 15 0 -15
BITMAP
000000
000100
000101
000101
000101
000101
07F90D
0001FD
0001FF
04010F
320306
220300
020200
040000
380000
ENDCHAR

STARTCHAR PushPinOutDefFill
ENCODING 185
SWIDTH 81 0
DWIDTH 23 0
BBX 23 12 0 -12
BITMAP
000000
000700
000706
0007F6
0007FE
0007FE
0007FE
0007FE
000706
000200
300000
300000
ENDCHAR

STARTCHAR HorizGauleLeftEndcap
ENCODING 186
SWIDTH 81 0
DWIDTH 6 0
BBX 6 16 0 -16
BITMAP
04
18
20
60
40
80
80
80
80
80
80
40
60
20
18
04
ENDCHAR

STARTCHAR HorizGaugwRightEndca
ENCODING 187
SWIDTH 81 0
DWIDTH 6 0
BBX 6 16 0 -16
BITMAP
80
60
10
18
08
04
04
04
04
04
04
08
18
10
60
80
ENDCHAR

STARTCHAR HorizGaugeOutlMiddle
ENCODING 188
SWIDTH 81 0
DWIDTH 1 0
BBX 1 16 0 -16
BITMAP
80
00
00
00
00
00
00
00
00
00
00
00
00
00
00
80
ENDCHAR

STARTCHAR HorizGaugeOutlMiddle
ENCODING 189
SWIDTH 81 0
DWIDTH 2 0
BBX 2 16 0 -16
BITMAP
C0
00
00
00
00
00
00
00
00
00
00
00
00
00
00
C0
ENDCHAR

STARTCHAR HorizGaugeOutlMiddle
ENCODING 190
SWIDTH 81 0
DWIDTH 4 0
BBX 4 16 0 -16
BITMAP
F0
00
00
00
00
00
00
00
00
00
00
00
00
00
00
F0
ENDCHAR

STARTCHAR HorizGaugeOutlMiddle
ENCODING 191
SWIDTH 81 0
DWIDTH 8 0
BBX 8 16 0 -16
BITMAP
FF
00
00
00
00
00
00
00
00
00
00
00
00
00
00
FF
ENDCHAR

STARTCHAR HorizGaugeOutlMiddle
ENCODING 192
SWIDTH 81 0
DWIDTH 16 0
BBX 16 16 0 -16
BITMAP
FFFF
0000
0000
0000
0000
0000
0000
0000
0000
0000
0000
0000
0000
0000
0000
FFFF
ENDCHAR

STARTCHAR CheckBoxClean
ENCODING 193
SWIDTH 81 0
DWIDTH 22 0
BBX 22 19 0 -19
BITMAP
FFFFFC
FFFFFC
00007C
00007C
00007C
00007C
00007C
00007C
00007C
00007C
00007C
00007C
00007C
00007C
00007C
00007C
00007C
00007C
00007C
ENDCHAR

STARTCHAR Vert-sb-box-UL
ENCODING 194
SWIDTH 81 0
DWIDTH 17 0
BBX 17 20 0 -20
BITMAP
FFFF80
800000
800000
800000
800000
800000
800000
800000
800000
800000
800000
800000
800000
800000
800000
800000
800000
800000
800000
000000
ENDCHAR

STARTCHAR Vert-sb-box-LR
ENCODING 195
SWIDTH 81 0
DWIDTH 17 0
BBX 17 19 0 -19
BITMAP
000000
000080
000080
000080
000080
000080
000080
000080
000080
000080
000080
000080
000080
000080
000080
000080
000080
000080
7FFF80
ENDCHAR

STARTCHAR Dimple.UL
ENCODING 196
SWIDTH 81 0
DWIDTH 10 0
BBX 10 14 0 -14
BITMAP
0000
0000
0000
0000
0000
03C0
0F00
0C00
1C00
1800
1800
0C00
0E00
0300
ENDCHAR

STARTCHAR Dimple.UL
ENCODING 197
SWIDTH 81 0
DWIDTH 12 0
BBX 12 14 0 -14
BITMAP
0000
0000
0000
0000
0000
0000
00E0
0020
0030
0010
0030
0030
00E0
00C0
ENDCHAR

STARTCHAR Dimple.UL
ENCODING 198
SWIDTH 81 0
DWIDTH 11 0
BBX 11 13 0 -13
BITMAP
0000
0000
0000
0000
0000
0000
0180
07C0
07E0
0FE0
0FE0
07C0
0380
ENDCHAR

STARTCHAR SldierOffset_SpecCha
ENCODING 199
SWIDTH 81 0
DWIDTH 6 0
BBX 6 1 0 -1
BITMAP
FC
ENDCHAR

STARTCHAR Horiz-sb-box-UL
ENCODING 200
SWIDTH 81 0
DWIDTH 18 0
BBX 18 17 0 -17
BITMAP
7FFFC0
800000
800000
800000
800000
800000
800000
800000
800000
800000
800000
800000
800000
800000
800000
800000
800000
ENDCHAR

STARTCHAR Horiz-sb-box-LR
ENCODING 201
SWIDTH 81 0
DWIDTH 19 0
BBX 19 17 0 -17
BITMAP
000000
000020
000020
000020
000020
000020
000020
000020
000020
000020
000020
000020
000020
000020
000020
000020
7FFFE0
ENDCHAR

STARTCHAR Vertmenumarkback-ul
ENCODING 202
SWIDTH 81 0
DWIDTH 0 0
BBX 11 11 0 -11
BITMAP
0400
0800
0800
1000
3000
3000
6000
6000
4000
8000
8000
ENDCHAR

STARTCHAR VertMenuMarkBack-LR
ENCODING 203
SWIDTH 81 0
DWIDTH 0 0
BBX 11 11 0 -11
BITMAP
0000
0200
0200
0100
0180
0180
00C0
00C0
0040
0020
7FE0
ENDCHAR

STARTCHAR VertMenuMarkback-fil
ENCODING 204
SWIDTH 81 0
DWIDTH 11 0
BBX 11 11 0 -11
BITMAP
0000
0400
0E00
0E00
1F00
1F00
3F80
3F80
7FC0
7FC0
0000
ENDCHAR

STARTCHAR HorizMenuMarkback-ul
ENCODING 205
SWIDTH 81 0
DWIDTH 0 0
BBX 11 6 0 -6
BITMAP
0060
0180
0F00
1C00
6000
8000
ENDCHAR

STARTCHAR HorizMenuMarkback-lr
ENCODING 206
SWIDTH 81 0
DWIDTH 0 0
BBX 11 11 0 -11
BITMAP
0000
0020
0020
0020
0020
0020
6020
1C20
0F20
03A0
0060
ENDCHAR

STARTCHAR HorizMenuMarkback-fi
ENCODING 207
SWIDTH 81 0
DWIDTH 12 0
BBX 12 11 0 -11
BITMAP
0000
00C0
03C0
0FC0
3FC0
7FC0
3FC0
0FC0
03C0
00C0
0000
ENDCHAR

STARTCHAR ActiveCaret
ENCODING 208
SWIDTH 81 0
DWIDTH 8 0
BBX 8 8 0 -8
BITMAP
18
18
3C
3C
3C
7E
7E
FF
ENDCHAR

STARTCHAR InactiveCaret
ENCODING 209
SWIDTH 81 0
DWIDTH 8 0
BBX 8 8 0 -8
BITMAP
18
3C
7E
FF
FF
7E
3C
18
ENDCHAR

STARTCHAR Vertgauge-TopEndcap
ENCODING 210
SWIDTH 81 0
DWIDTH 16 0
BBX 16 6 0 -6
BITMAP
07E0
1818
300C
4002
4002
8001
ENDCHAR

STARTCHAR Vertgauge-Botendcap
ENCODING 211
SWIDTH 81 0
DWIDTH 16 0
BBX 16 6 0 -6
BITMAP
8001
4002
4002
300C
1818
07E0
ENDCHAR

STARTCHAR ButtonSpec-UR
ENCODING 212
SWIDTH 81 0
DWIDTH 6 0
BBX 6 6 0 -6
BITMAP
E0
38
08
0C
04
04
ENDCHAR

STARTCHAR ButtonSpec-LR
ENCODING 213
SWIDTH 81 0
DWIDTH 6 0
BBX 6 6 0 -6
BITMAP
04
04
0C
08
38
E0
ENDCHAR

STARTCHAR ButtonSpec-2D-LR
ENCODING 214
SWIDTH 81 0
DWIDTH 6 0
BBX 7 7 0 -7
BITMAP
06
06
06
0C
1C
F8
E0
ENDCHAR

STARTCHAR ButtonSpecialDef-UL
ENCODING 215
SWIDTH 81 0
DWIDTH 6 0
BBX 6 6 0 -6
BITMAP
00
00
0C
1C
30
30
ENDCHAR

STARTCHAR ButtonSpecialDef-LL
ENCODING 216
SWIDTH 81 0
DWIDTH 6 0
BBX 6 4 0 -4
BITMAP
30
30
10
0C
ENDCHAR

STARTCHAR ButtonSpecDef-UR
ENCODING 217
SWIDTH 81 0
DWIDTH 4 0
BBX 4 6 0 -6
BITMAP
00
00
C0
E0
10
10
ENDCHAR

STARTCHAR ButtonSpecDef-LR
ENCODING 218
SWIDTH 81 0
DWIDTH 4 0
BBX 4 4 0 -4
BITMAP
10
10
20
C0
ENDCHAR

STARTCHAR HorizGaugeLeftEnd-Fi
ENCODING 219
SWIDTH 81 0
DWIDTH 6 0
BBX 6 16 0 -16
BITMAP
00
04
1C
3C
3C
7C
7C
7C
7C
7C
7C
3C
3C
1C
04
00
ENDCHAR

STARTCHAR HorizGaugeMiddleFill
ENCODING 220
SWIDTH 81 0
DWIDTH 1 0
BBX 1 16 0 -16
BITMAP
00
80
80
80
80
80
80
80
80
80
80
80
80
80
80
00
ENDCHAR

STARTCHAR HorizGaugeMiddleFill
ENCODING 221
SWIDTH 81 0
DWIDTH 2 0
BBX 2 16 0 -16
BITMAP
00
C0
C0
C0
C0
C0
C0
C0
C0
C0
C0
C0
C0
C0
C0
00
ENDCHAR

STARTCHAR HorizGaugeMiddleFill
ENCODING 222
SWIDTH 81 0
DWIDTH 4 0
BBX 4 16 0 -16
BITMAP
00
F0
F0
F0
F0
F0
F0
F0
F0
F0
F0
F0
F0
F0
F0
00
ENDCHAR

STARTCHAR HorizGaugeMiddleFill
ENCODING 223
SWIDTH 81 0
DWIDTH 8 0
BBX 8 16 0 -16
BITMAP
00
FF
FF
FF
FF
FF
FF
FF
FF
FF
FF
FF
FF
FF
FF
00
ENDCHAR

STARTCHAR HorizGaugeMiddleFill
ENCODING 224
SWIDTH 81 0
DWIDTH 16 0
BBX 16 16 0 -16
BITMAP
0000
FFFF
FFFF
FFFF
FFFF
FFFF
FFFF
FFFF
FFFF
FFFF
FFFF
FFFF
FFFF
FFFF
FFFF
0000
ENDCHAR

STARTCHAR HorizGaugeRightEndFi
ENCODING 225
SWIDTH 81 0
DWIDTH 6 0
BBX 6 16 0 -16
BITMAP
00
80
E0
F0
F0
F8
F8
F8
F8
F8
F8
F0
F0
E0
80
00
ENDCHAR

STARTCHAR Vertgauge-TopEndcapF
ENCODING 226
SWIDTH 81 0
DWIDTH 16 0
BBX 16 6 0 -6
BITMAP
0000
07E0
1FF8
3FFC
3FFC
7FFE
ENDCHAR

STARTCHAR VertgaugeBotFill
ENCODING 227
SWIDTH 81 0
DWIDTH 16 0
BBX 16 6 0 -6
BITMAP
7FFE
3FFC
3FFC
1FF8
07E0
0000
ENDCHAR

STARTCHAR TextScrollLeft
ENCODING 228
SWIDTH 81 0
DWIDTH 16 0
BBX 22 22 0 -22
BITMAP
7FFFF8
80000C
80000C
80000C
800C0C
801C0C
803C0C
807C0C
80FC0C
81FC0C
81FC0C
81FC0C
80FC0C
807C0C
803C0C
801C0C
800C0C
80000C
80000C
80000C
FFFFFC
7FFFF8
ENDCHAR

STARTCHAR TextScrollRight
ENCODING 229
SWIDTH 81 0
DWIDTH 22 0
BBX 22 22 0 -22
BITMAP
7FFFF8
80000C
80000C
80000C
81800C
81C00C
81E00C
81F00C
81F80C
81FC0C
81FC0C
81FC0C
81F80C
81F00C
81E00C
81C00C
81800C
80000C
80000C
80000C
FFFFFC
7FFFF8
ENDCHAR

STARTCHAR TextScrollLeftInv
ENCODING 230
SWIDTH 81 0
DWIDTH 16 0
BBX 22 22 0 -22
BITMAP
7FFFF8
80000C
BFFFFC
BFFFFC
BFFFFC
BFF3FC
BFE3FC
BFC3FC
BF83FC
BF03FC
BE03FC
BF03FC
BF83FC
BFC3FC
BFE3FC
BFF3FC
BFFBFC
BFFFFC
BFFFFC
BFFFEC
FFFFFC
7FFFF8
ENDCHAR

STARTCHAR TextScrollRightInv
ENCODING 231
SWIDTH 81 0
DWIDTH 22 0
BBX 22 22 0 -22
BITMAP
7FFFF8
80000C
BFFFFC
BFFFFC
BFFFFC
BE7FFC
BE3FFC
BE1FFC
BE0FFC
BE07FC
BE03FC
BE07FC
BE0FFC
BE1FFC
BE3FFC
BE7FFC
BFFFFC
BFFFFC
BFFFFC
BFFFEC
FFFFFC
7FFFF8
ENDCHAR

STARTCHAR NumericScrollNoraml
ENCODING 232
SWIDTH 81 0
DWIDTH 41 0
BBX 41 22 0 -22
BITMAP
7FFFFFFFFF00
800018000180
800018000180
800018000180
800018000180
800018000180
800018000180
806018FFF180
80F018FFF180
81F8187FE180
83FC183FC180
87FE181F8180
8FFF180F0180
8FFF18060180
800018000180
800018000180
800018000180
800018000180
800018000180
800018000180
FFFFFFFFFF80
7FFFFFFFFF00
ENDCHAR

STARTCHAR NumericScrollLeftInv
ENCODING 233
SWIDTH 81 0
DWIDTH 41 0
BBX 41 22 0 -22
BITMAP
7FFFFFFFFF00
800018000180
BFFFF8000180
BFFFF8000180
BFFFF8000180
BFFFF8000180
BFFFF8000180
BFDFF8FFF180
BF8FF8FFF180
BF07F87FE180
BE03F83FC180
BC01F81F8180
B800F80F0180
B000F8060180
BFFFF8000180
BFFFF8000180
BFFFF8000180
BFFFF8000180
BFFFF8000180
BFFFD8000180
FFFFFFFFFF80
7FFFFFFFFF00
ENDCHAR

STARTCHAR NumericScrollRightInv
ENCODING 234
SWIDTH 81 0
DWIDTH 41 0
BBX 41 22 0 -22
BITMAP
7FFFFFFFFF00
800018000180
80001FFFFF80
80001FFFFF80
80001FFFFF80
80001FFFFF80
80001FFFFF80
80601F000F80
80F01F000F80
81F81F801F80
83FC1FC07F80
87FE1FE0FF80
8FFF1FF0FF80
8FFF1FF9FF80
80001FFFFF80
80001FFFFF80
80001FFFFF80
80001FFFFF80
80001FFFFF80
80001BFFFD80
FFFFFFFFFF80
7FFFFFFFFF00
ENDCHAR
ENDFONT
